<mxfile host="app.diagrams.net" modified="2023-08-01T11:50:53.048Z" agent="Mozilla/5.0 (Macintosh; Intel Mac OS X 10_15_7) AppleWebKit/537.36 (KHTML, like Gecko) Chrome/114.0.0.0 Safari/537.36" etag="XWSuoPBKkFalkqR24vK-" version="21.6.6" type="github">
  <diagram name="第 1 页" id="yqQ3hrJPulyTldEbJ_DK">
    <mxGraphModel dx="1306" dy="716" grid="1" gridSize="10" guides="1" tooltips="1" connect="1" arrows="1" fold="1" page="1" pageScale="1" pageWidth="827" pageHeight="1169" math="0" shadow="0">
      <root>
        <mxCell id="0" />
        <mxCell id="1" parent="0" />
        <mxCell id="-pOtgHXbaxwmbOymeWTH-7" value="" style="edgeStyle=orthogonalEdgeStyle;rounded=0;orthogonalLoop=1;jettySize=auto;html=1;" edge="1" parent="1" source="-pOtgHXbaxwmbOymeWTH-3">
          <mxGeometry relative="1" as="geometry">
            <mxPoint x="365" y="390" as="targetPoint" />
          </mxGeometry>
        </mxCell>
        <mxCell id="-pOtgHXbaxwmbOymeWTH-3" value="Redis&lt;br&gt;(Expire 1 min)" style="shape=cylinder3;whiteSpace=wrap;html=1;boundedLbl=1;backgroundOutline=1;size=15;" vertex="1" parent="1">
          <mxGeometry x="322.5" y="260" width="85" height="90" as="geometry" />
        </mxCell>
        <mxCell id="-pOtgHXbaxwmbOymeWTH-8" value="" style="edgeStyle=orthogonalEdgeStyle;rounded=0;orthogonalLoop=1;jettySize=auto;html=1;" edge="1" parent="1" source="-pOtgHXbaxwmbOymeWTH-5" target="-pOtgHXbaxwmbOymeWTH-6">
          <mxGeometry relative="1" as="geometry" />
        </mxCell>
        <mxCell id="-pOtgHXbaxwmbOymeWTH-13" style="edgeStyle=orthogonalEdgeStyle;rounded=0;orthogonalLoop=1;jettySize=auto;html=1;exitX=1;exitY=0.5;exitDx=0;exitDy=0;entryX=0;entryY=0.5;entryDx=0;entryDy=0;" edge="1" parent="1" source="-pOtgHXbaxwmbOymeWTH-5" target="-pOtgHXbaxwmbOymeWTH-12">
          <mxGeometry relative="1" as="geometry" />
        </mxCell>
        <mxCell id="-pOtgHXbaxwmbOymeWTH-37" style="edgeStyle=orthogonalEdgeStyle;rounded=0;orthogonalLoop=1;jettySize=auto;html=1;exitX=0;exitY=0.5;exitDx=0;exitDy=0;entryX=1;entryY=0.5;entryDx=0;entryDy=0;" edge="1" parent="1" source="-pOtgHXbaxwmbOymeWTH-5" target="-pOtgHXbaxwmbOymeWTH-35">
          <mxGeometry relative="1" as="geometry" />
        </mxCell>
        <mxCell id="-pOtgHXbaxwmbOymeWTH-5" value="coingecko Adapter" style="rounded=1;whiteSpace=wrap;html=1;" vertex="1" parent="1">
          <mxGeometry x="305" y="480" width="120" height="60" as="geometry" />
        </mxCell>
        <mxCell id="-pOtgHXbaxwmbOymeWTH-14" style="edgeStyle=orthogonalEdgeStyle;rounded=0;orthogonalLoop=1;jettySize=auto;html=1;entryX=0.5;entryY=1;entryDx=0;entryDy=0;" edge="1" parent="1" source="-pOtgHXbaxwmbOymeWTH-6" target="-pOtgHXbaxwmbOymeWTH-12">
          <mxGeometry relative="1" as="geometry" />
        </mxCell>
        <mxCell id="-pOtgHXbaxwmbOymeWTH-39" style="edgeStyle=orthogonalEdgeStyle;rounded=0;orthogonalLoop=1;jettySize=auto;html=1;exitX=0;exitY=0.5;exitDx=0;exitDy=0;entryX=1;entryY=0.5;entryDx=0;entryDy=0;" edge="1" parent="1" source="-pOtgHXbaxwmbOymeWTH-6" target="-pOtgHXbaxwmbOymeWTH-36">
          <mxGeometry relative="1" as="geometry" />
        </mxCell>
        <mxCell id="-pOtgHXbaxwmbOymeWTH-6" value="&lt;table id=&quot;3893c9cf-16d9-4c6e-9450-707d32a2a02b&quot; class=&quot;simple-table&quot;&gt;&lt;tbody&gt;&lt;tr id=&quot;10b8a67f-8c77-4f25-928b-4482de56c09c&quot;&gt;&lt;td id=&quot;b&gt;DO&quot; class=&quot;&quot;&gt;coinpaprika&lt;/td&gt;&lt;/tr&gt;&lt;/tbody&gt;&lt;/table&gt;Adapter" style="rounded=1;whiteSpace=wrap;html=1;" vertex="1" parent="1">
          <mxGeometry x="305" y="580" width="120" height="60" as="geometry" />
        </mxCell>
        <mxCell id="-pOtgHXbaxwmbOymeWTH-10" value="miss" style="text;html=1;align=center;verticalAlign=middle;resizable=0;points=[];autosize=1;strokeColor=none;fillColor=none;" vertex="1" parent="1">
          <mxGeometry x="359" y="350" width="50" height="30" as="geometry" />
        </mxCell>
        <mxCell id="-pOtgHXbaxwmbOymeWTH-11" value="miss" style="text;html=1;align=center;verticalAlign=middle;resizable=0;points=[];autosize=1;strokeColor=none;fillColor=none;" vertex="1" parent="1">
          <mxGeometry x="357.5" y="540" width="50" height="30" as="geometry" />
        </mxCell>
        <mxCell id="-pOtgHXbaxwmbOymeWTH-15" style="edgeStyle=orthogonalEdgeStyle;rounded=0;orthogonalLoop=1;jettySize=auto;html=1;entryX=1;entryY=0.5;entryDx=0;entryDy=0;entryPerimeter=0;" edge="1" parent="1" source="-pOtgHXbaxwmbOymeWTH-12" target="-pOtgHXbaxwmbOymeWTH-3">
          <mxGeometry relative="1" as="geometry">
            <Array as="points">
              <mxPoint x="520" y="305" />
            </Array>
          </mxGeometry>
        </mxCell>
        <mxCell id="-pOtgHXbaxwmbOymeWTH-32" style="edgeStyle=orthogonalEdgeStyle;rounded=0;orthogonalLoop=1;jettySize=auto;html=1;exitX=0.75;exitY=0;exitDx=0;exitDy=0;entryX=1;entryY=0.3333333333333333;entryDx=0;entryDy=0;entryPerimeter=0;" edge="1" parent="1" source="-pOtgHXbaxwmbOymeWTH-12" target="-pOtgHXbaxwmbOymeWTH-25">
          <mxGeometry relative="1" as="geometry" />
        </mxCell>
        <mxCell id="-pOtgHXbaxwmbOymeWTH-12" value="监控上报" style="rounded=1;whiteSpace=wrap;html=1;" vertex="1" parent="1">
          <mxGeometry x="480" y="480" width="120" height="60" as="geometry" />
        </mxCell>
        <mxCell id="-pOtgHXbaxwmbOymeWTH-16" value="store" style="text;html=1;align=center;verticalAlign=middle;resizable=0;points=[];autosize=1;strokeColor=none;fillColor=none;" vertex="1" parent="1">
          <mxGeometry x="480" y="450" width="50" height="30" as="geometry" />
        </mxCell>
        <mxCell id="-pOtgHXbaxwmbOymeWTH-18" style="edgeStyle=orthogonalEdgeStyle;rounded=0;orthogonalLoop=1;jettySize=auto;html=1;exitX=0.5;exitY=1;exitDx=0;exitDy=0;entryX=0.5;entryY=0;entryDx=0;entryDy=0;" edge="1" parent="1" source="-pOtgHXbaxwmbOymeWTH-17" target="-pOtgHXbaxwmbOymeWTH-5">
          <mxGeometry relative="1" as="geometry" />
        </mxCell>
        <mxCell id="-pOtgHXbaxwmbOymeWTH-17" value="三方监控" style="rounded=1;whiteSpace=wrap;html=1;" vertex="1" parent="1">
          <mxGeometry x="305" y="390" width="120" height="60" as="geometry" />
        </mxCell>
        <mxCell id="-pOtgHXbaxwmbOymeWTH-28" style="edgeStyle=orthogonalEdgeStyle;rounded=0;orthogonalLoop=1;jettySize=auto;html=1;entryX=0.5;entryY=0;entryDx=0;entryDy=0;" edge="1" parent="1" source="-pOtgHXbaxwmbOymeWTH-25" target="-pOtgHXbaxwmbOymeWTH-27">
          <mxGeometry relative="1" as="geometry" />
        </mxCell>
        <mxCell id="-pOtgHXbaxwmbOymeWTH-25" value="Actor" style="shape=umlActor;verticalLabelPosition=bottom;verticalAlign=top;html=1;outlineConnect=0;" vertex="1" parent="1">
          <mxGeometry x="350" y="50" width="30" height="60" as="geometry" />
        </mxCell>
        <mxCell id="-pOtgHXbaxwmbOymeWTH-29" style="edgeStyle=orthogonalEdgeStyle;rounded=0;orthogonalLoop=1;jettySize=auto;html=1;exitX=0.5;exitY=1;exitDx=0;exitDy=0;entryX=0.5;entryY=0;entryDx=0;entryDy=0;entryPerimeter=0;" edge="1" parent="1" source="-pOtgHXbaxwmbOymeWTH-27" target="-pOtgHXbaxwmbOymeWTH-3">
          <mxGeometry relative="1" as="geometry" />
        </mxCell>
        <mxCell id="-pOtgHXbaxwmbOymeWTH-27" value="黑白名单处理" style="rounded=1;whiteSpace=wrap;html=1;" vertex="1" parent="1">
          <mxGeometry x="305" y="170" width="120" height="60" as="geometry" />
        </mxCell>
        <mxCell id="-pOtgHXbaxwmbOymeWTH-33" value="return price" style="text;html=1;align=center;verticalAlign=middle;resizable=0;points=[];autosize=1;strokeColor=none;fillColor=none;" vertex="1" parent="1">
          <mxGeometry x="570" y="450" width="80" height="30" as="geometry" />
        </mxCell>
        <mxCell id="-pOtgHXbaxwmbOymeWTH-35" value="coingecko" style="rounded=1;whiteSpace=wrap;html=1;" vertex="1" parent="1">
          <mxGeometry x="98" y="480" width="120" height="60" as="geometry" />
        </mxCell>
        <mxCell id="-pOtgHXbaxwmbOymeWTH-36" value="&lt;table style=&quot;border-color: var(--border-color);&quot; id=&quot;3893c9cf-16d9-4c6e-9450-707d32a2a02b&quot; class=&quot;simple-table&quot;&gt;&lt;tbody style=&quot;border-color: var(--border-color);&quot;&gt;&lt;tr style=&quot;border-color: var(--border-color);&quot; id=&quot;10b8a67f-8c77-4f25-928b-4482de56c09c&quot;&gt;&lt;td style=&quot;border-color: var(--border-color);&quot; id=&quot;b&gt;DO&quot; class=&quot;&quot;&gt;coinpaprika&lt;/td&gt;&lt;/tr&gt;&lt;/tbody&gt;&lt;/table&gt;" style="rounded=1;whiteSpace=wrap;html=1;" vertex="1" parent="1">
          <mxGeometry x="98" y="580" width="120" height="60" as="geometry" />
        </mxCell>
        <mxCell id="-pOtgHXbaxwmbOymeWTH-40" value="hit" style="text;html=1;align=center;verticalAlign=middle;resizable=0;points=[];autosize=1;strokeColor=none;fillColor=none;" vertex="1" parent="1">
          <mxGeometry x="414" y="487" width="40" height="30" as="geometry" />
        </mxCell>
        <mxCell id="-pOtgHXbaxwmbOymeWTH-42" value="Redis&lt;br&gt;(Expire 1 min)" style="shape=cylinder3;whiteSpace=wrap;html=1;boundedLbl=1;backgroundOutline=1;size=15;" vertex="1" parent="1">
          <mxGeometry x="329" y="780" width="85" height="90" as="geometry" />
        </mxCell>
      </root>
    </mxGraphModel>
  </diagram>
</mxfile>
